PathFileType	4	(X/Y/Z)	S01_0017_Gait_markers.trc
DataRate	CameraRate	NumFrames	NumMarkers	Units	OrigDataRate	OrigDataStartFrame	OrigNumFrames
250.000000	250.000000	4	54	mm	250.000000	227	364
Frame#	Time	HEAD_ANT			R_HEAD			L_HEAD			C7			R_BACK			L_BACK			STERNUM			R_ACROMION			R_HUM_PROX			R_HUM_ANT			R_HUM_POST			R_ELBOW_LAT			R_ELBOW_MED			R_FOREARM			R_WIRST_LAT			R_WRITS_MED			R_HAND			L_ACROMION			L_HUM_PROX			L_HUM_ANT			L_HUM_POST			L_ELBOW_LAT			L_ELBOW_MED			L_FOREARM			L_WRIST_LAT			L_WIRST_MED			L_HAND			R_ILIAC			SACRUM			L_ILIAC			R_GTROCH			R_THIGH__1			R_THIGH_2			R_THIGH_3			R_THIGH_4			R_SHANK_1			R_SHANK_2			R_SHANK_3			R_SHANK_4			R_HEEL			R_FOOT_LAT			R_FOOT_MED			L_GTROCH			L_THIGH_1			L_THIGH_2			L_THIGH_3			L_THIGH_4			L_SHANK_1			L_SHANK_2			L_SHANK_3			L_SHANK_4			L_HEEL			L_FOOT_LAT			L_FOOT_MED			
		X1	Y1	Z1	X2	Y2	Z2	X3	Y3	Z3	X4	Y4	Z4	X5	Y5	Z5	X6	Y6	Z6	X7	Y7	Z7	X8	Y8	Z8	X9	Y9	Z9	X10	Y10	Z10	X11	Y11	Z11	X12	Y12	Z12	X13	Y13	Z13	X14	Y14	Z14	X15	Y15	Z15	X16	Y16	Z16	X17	Y17	Z17	X18	Y18	Z18	X19	Y19	Z19	X20	Y20	Z20	X21	Y21	Z21	X22	Y22	Z22	X23	Y23	Z23	X24	Y24	Z24	X25	Y25	Z25	X26	Y26	Z26	X27	Y27	Z27	X28	Y28	Z28	X29	Y29	Z29	X30	Y30	Z30	X31	Y31	Z31	X32	Y32	Z32	X33	Y33	Z33	X34	Y34	Z34	X35	Y35	Z35	X36	Y36	Z36	X37	Y37	Z37	X38	Y38	Z38	X39	Y39	Z39	X40	Y40	Z40	X41	Y41	Z41	X42	Y42	Z42	X43	Y43	Z43	X44	Y44	Z44	X45	Y45	Z45	X46	Y46	Z46	X47	Y47	Z47	X48	Y48	Z48	X49	Y49	Z49	X50	Y50	Z50	X51	Y51	Z51	X52	Y52	Z52	X53	Y53	Z53	X54	Y54	Z54	

228	0.908	1290.225341796875	1743.8720703125	-389.2783813476559	1228.651611328125	1697.1044921875	-311.271820068359	1233.091430664062	1692.318359375	-458.7892150878902	1091.863037109375	1522.2568359375	-381.0202636718747	1023.079223632812	1324.972412109375	-307.983947753906	1026.206665039062	1323.214111328125	-443.6957092285153	1274.029052734375	1364.7109375	-367.1419677734372	1164.352661132812	1482.719116210938	-203.7529144287106	1126.141967773438	1323.689453125	-110.5209274291989	1186.173706054688	1237.438598632812	-107.2415542602536	1065.305419921875	1240.831665039062	-98.31809997558567	1107.632080078125	1134.549560546875	-91.54552459716771	1089.94091796875	1129.690063476562	-172.533020019531	1200.885864257812	947.8482055664062	-79.51439666748026	1237.035522460938	878.1005249023438	-116.9118347167967	1167.31005859375	860.9215698242188	-78.6627655029295	1232.305541992188	791.5250244140625	-58.08724212646467	1175.609252929688	1472.222778320313	-542.7477416992184	1155.912841796875	1301.716796875	-630.7772216796872	1218.734375	1221.163940429688	-627.0612182617185	1097.367431640625	1222.747192382813	-653.364807128906	1157.16748046875	1117.290893554688	-655.7807617187498	1102.593017578125	1114.64599609375	-600.2443847656248	1259.671875	943.1216430664064	-633.1485595703123	1287.42626953125	883.2646484375001	-578.8888549804685	1245.692504882812	860.3905029296876	-641.6386718749998	1321.4580078125	804.4411010742189	-625.3981933593748	1166.013916015625	1069.536865234375	-195.0292358398435	1045.686645507812	1047.048461914062	-371.1344604492185	1173.67138671875	1074.612182617188	-540.7499999999998	1116.649658203125	917.3783569335938	-187.0350646972654	1187.010131835938	640.5219116210938	-196.3645629882811	1241.942504882812	660.6637573242188	-186.9299011230467	1255.340209960938	556.7283935546875	-211.5453338623046	1189.956787109375	559.2800903320312	-211.2145996093749	1078.857543945312	404.5424194335938	-202.0205535888671	1104.119506835938	351.0297241210938	-214.5104522705077	1042.682006835938	292.8707885742188	-231.7934417724609	1001.6943359375	341.0217895507813	-222.3699951171874	831.1253662109375	227.8795928955079	-304.3619995117187	913.4335327148438	87.96949005126957	-222.4882507324218	958.3638305664062	61.47713851928718	-310.6561889648438	1148.869873046875	963.3375854492189	-551.2622070312498	1274.953247070312	680.0382080078126	-514.4818725585936	1221.836059570312	691.5553588867189	-538.3705444335936	1215.431030273438	590.5840454101564	-501.3410339355468	1277.036376953125	601.9996337890626	-485.8517456054686	1241.048583984375	324.7505798339845	-472.7801818847656	1183.273681640625	306.194061279297	-478.5279541015624	1174.41748046875	221.6792297363282	-459.0389099121093	1237.306762695312	224.9349060058595	-443.7939147949218	1117.122924804688	42.00386810302743	-381.4321594238281	1295.876098632812	20.29532241821299	-445.6311645507812	1328.075805664062	28.43839263916023	-335.660888671875	
229	0.912	1295.344604492188	1744.615966796875	-389.3872680664059	1233.981323242188	1698.022338867188	-311.4727783203121	1238.49169921875	1693.08203125	-459.0185546874996	1097.142578125	1523.03466796875	-381.1863098144528	1028.299438476562	1325.886596679688	-308.6395874023435	1031.393310546875	1324.233642578125	-444.0805358886716	1279.189086914062	1365.53271484375	-367.3661499023435	1169.4384765625	1483.560424804688	-204.1100463867184	1130.739379882812	1324.427001953125	-110.7020721435544	1190.590209960938	1238.156494140625	-107.3277435302732	1069.609252929688	1241.920532226562	-98.69262695312473	1111.27197265625	1135.779663085938	-91.91104125976537	1094.40576171875	1130.677612304688	-172.7890319824216	1204.839477539062	948.5718383789062	-79.52459716796854	1240.781616210938	878.7827758789062	-117.0366821289061	1171.1669921875	861.8068237304688	-78.56782531738263	1235.842895507812	792.256591796875	-58.17531585693342	1180.944213867188	1473.2158203125	-542.9492187499997	1161.25732421875	1302.601806640625	-631.2534179687497	1224.169555664062	1222.155029296875	-627.408020019531	1102.948608398438	1223.661254882813	-653.4190673828123	1163.054077148438	1118.42626953125	-655.8403320312498	1108.335815429688	1115.659423828125	-600.192687988281	1265.684936523438	944.3366699218751	-633.1525268554685	1293.62353515625	884.5335083007814	-578.7208251953123	1251.941284179688	861.7727050781251	-641.5972900390623	1327.885864257812	805.7319946289064	-625.349670410156	1171.828247070312	1070.8984375	-195.5186920166013	1050.993408203125	1047.973266601562	-371.440490722656	1178.924560546875	1075.435180664063	-541.135803222656	1122.914184570312	918.3230590820312	-187.3972015380857	1195.220092773438	641.7930297851562	-196.4743804931639	1250.117919921875	662.3119506835938	-187.0511016845702	1264.254272460938	558.2987670898438	-211.8507690429686	1198.79248046875	560.5974731445312	-211.2156982421874	1088.741821289062	404.5891113281251	-202.0913696289062	1114.614990234375	351.6087036132813	-214.5502777099609	1053.716796875	292.5195312500001	-231.9413909912109	1012.333923339844	340.4192199707032	-222.3741607666015	842.4087524414062	224.6614074707032	-304.0865173339843	928.3079223632812	86.47677612304692	-222.4671478271484	973.488037109375	60.93911361694343	-310.7149963378906	1153.201538085938	963.9361572265626	-551.5964355468748	1277.270751953125	679.7615966796876	-514.8259887695311	1224.319946289062	691.7274169921876	-538.3641357421874	1216.996948242188	590.6818847656251	-501.2024536132811	1278.986450195312	601.7551269531251	-486.3192749023436	1241.386596679688	324.8353271484376	-473.0423889160156	1184.087768554688	305.8514709472657	-478.0111694335937	1174.613647460938	221.8801879882814	-458.8883666992187	1237.530517578125	224.9963989257813	-443.9137573242187	1117.2265625	42.16693878173837	-381.0023803710938	1295.9091796875	20.2740535736085	-445.7054138183594	1328.125610351562	28.45361137390144	-335.7671508789062	
230	0.916	1300.677612304688	1745.296142578125	-389.7113952636715	1238.53076171875	1698.785766601562	-312.3801574707027	1243.5615234375	1693.83642578125	-459.1054077148434	1102.340454101562	1523.77490234375	-381.5093994140622	1033.565063476562	1326.634033203125	-309.0377502441403	1036.678466796875	1325.116088867188	-444.7402343749997	1284.390747070312	1366.35595703125	-367.6201171874997	1174.589599609375	1484.3759765625	-204.35969543457	1135.351196289062	1325.375	-110.9333267211911	1194.923706054688	1238.8291015625	-107.3132705688474	1074.140869140625	1242.8388671875	-99.1723327636716	1115.612182617188	1136.447631835938	-92.03797912597631	1098.72216796875	1131.622680664062	-172.8431854248044	1208.797607421875	949.3502807617188	-79.67812347412088	1244.45654296875	879.4429931640625	-115.74600982666	1174.986083984375	862.6205444335938	-78.57837677001935	1239.5048828125	792.9491577148438	-58.0542907714842	1186.251098632812	1474.04248046875	-543.1536865234372	1166.614501953125	1303.48974609375	-631.5612792968747	1229.517700195312	1223.076293945313	-627.9135742187498	1108.218994140625	1224.469482421875	-653.2362670898435	1168.7265625	1119.277587890625	-656.0792846679685	1113.911376953125	1116.549072265625	-600.3500366210935	1271.727416992188	945.4851684570314	-633.210754394531	1300.169311523438	886.0026245117189	-578.9235839843748	1258.119506835938	862.8966674804689	-641.5206298828123	1334.331298828125	807.2341918945314	-625.2248535156248	1177.518432617188	1072.221557617188	-196.0517578124998	1055.5439453125	1049.017944335938	-372.2564392089841	1184.030639648438	1076.214233398438	-541.506408691406	1128.711669921875	919.4171752929688	-187.4178314208982	1203.431884765625	642.9087524414062	-196.2151794433592	1258.070068359375	663.7257690429688	-187.4596862792967	1272.52294921875	559.81103515625	-211.9804382324218	1207.200805664062	561.2718505859375	-211.3478393554686	1098.637939453125	404.6108703613282	-202.3714752197265	1125.553955078125	352.2333679199219	-214.7922363281249	1064.741821289062	292.2838439941407	-231.8862152099609	1022.768310546875	339.5905456542969	-222.107696533203	853.9592895507812	221.3836975097657	-303.6756591796874	943.0975952148438	84.87400817871098	-222.50439453125	988.7808227539062	60.69585418701179	-310.8749084472656	1157.84130859375	964.5819091796876	-551.844543457031	1279.857788085938	679.4921875000001	-515.1126098632811	1226.822265625	691.9279785156251	-538.4923095703124	1218.537719726562	590.7304687500001	-501.1638183593749	1280.706420898438	601.5046386718751	-486.6258850097655	1241.7255859375	324.8475952148439	-473.2270507812499	1184.336181640625	306.0208740234376	-477.9657592773437	1174.71240234375	222.3190002441407	-458.9366455078124	1237.725463867188	225.1153259277345	-444.1494445800781	1117.353393554688	42.3523597717286	-380.4682312011719	1295.90625	20.23448371887217	-445.7560424804688	1328.1962890625	28.51600646972664	-335.8334655761719	
231	0.92	1305.882080078125	1746.013793945312	-389.7490234374996	1243.762451171875	1699.471923828125	-312.479339599609	1248.93603515625	1694.594848632812	-459.2692565917965	1107.669067382812	1524.719604492188	-381.7335815429684	1038.805541992188	1327.342163085938	-309.4724121093747	1041.790649414062	1326.202758789062	-445.5311889648435	1289.517822265625	1367.18701171875	-367.6156005859372	1179.722534179688	1485.169921875	-204.4828491210934	1140.084838867188	1326.247680664062	-111.0225830078122	1199.36474609375	1239.512084960938	-107.2080001831052	1078.448364257812	1243.820922851562	-99.70720672607395	1120.118408203125	1137.231201171875	-92.22859954833959	1103.314453125	1132.489624023438	-172.9436492919919	1212.679321289062	950.0974731445312	-79.75403594970682	1248.291870117188	879.9884033203125	-117.3015136718748	1178.828857421875	863.3910522460938	-78.54696655273419	1243.176879882812	793.6022338867188	-58.08862304687482	1191.709838867188	1474.96337890625	-543.2101440429684	1172.023559570312	1304.535034179688	-631.7135620117184	1235.126953125	1224.13818359375	-628.340393066406	1113.653686523438	1225.249877929688	-653.5016479492185	1174.161499023438	1119.967163085938	-656.2137451171873	1119.414184570312	1117.29541015625	-600.515686035156	1277.80078125	946.7231445312501	-633.2166748046873	1306.569580078125	887.4860839843751	-578.817443847656	1264.410888671875	864.1193237304689	-641.1998291015623	1340.700073242188	808.5990600585939	-625.1854858398435	1182.81884765625	1073.496215820312	-196.8422393798826	1060.69091796875	1049.880737304688	-372.527404785156	1189.272827148438	1076.898681640625	-541.7684326171873	1134.554931640625	920.5467529296875	-187.408493041992	1211.526245117188	644.0702514648438	-196.3158721923827	1266.063842773438	665.2301025390625	-187.9504241943358	1281.040405273438	561.3548583984375	-212.3775177001952	1215.870361328125	562.7576293945312	-211.3765563964843	1108.728637695312	404.6949157714844	-202.3090820312499	1136.288330078125	352.8265075683594	-214.5352783203124	1076.35888671875	291.5585021972657	-231.7105865478515	1033.584228515625	338.8723144531251	-222.4310607910155	865.6622314453125	217.7682342529297	-303.3320007324218	958.0220947265625	83.35164642333989	-222.6193237304687	1004.0185546875	60.10531234741218	-311.5904846191406	1162.38525390625	964.9211425781251	-552.0662841796873	1282.260498046875	679.1825561523439	-515.4536132812499	1229.251953125	692.1393432617189	-538.7968749999999	1220.281860351562	590.8813476562501	-501.3241882324218	1282.55615234375	601.2602539062501	-486.7245178222655	1242.340454101562	324.3299865722657	-472.2960815429687	1184.567260742188	305.9009399414064	-477.8362731933593	1174.845336914062	222.5088653564454	-458.7928771972656	1237.962280273438	225.1652832031251	-444.3307189941406	1117.487915039062	42.60170364379891	-380.0181274414062	1295.913818359375	20.1941967010499	-445.8082580566406	1328.29736328125	28.55055809021004	-335.9183959960938	
